<?xml version="1.0" standalone="no"?>
<!DOCTYPE svg PUBLIC "-//W3C//DTD SVG 20010904//EN"
 "http://www.w3.org/TR/2001/REC-SVG-20010904/DTD/svg10.dtd">
<svg version="1.0" xmlns="http://www.w3.org/2000/svg"
 width="1080.000000pt" height="1080.000000pt" viewBox="0 0 1080.000000 1080.000000"
 preserveAspectRatio="xMidYMid meet">

<g transform="translate(0.000000,1080.000000) scale(0.100000,-0.100000)"
fill="#000000" stroke="none">
<path d="M0 5400 l0 -5400 5400 0 5400 0 0 5400 0 5400 -5400 0 -5400 0 0
-5400z m4089 -3451 c34 -34 45 -99 16 -99 -10 0 -15 10 -15 28 0 43 -15 56
-72 62 -69 8 -108 -10 -109 -48 -3 -164 3 -268 16 -278 8 -6 13 -13 10 -16 -3
-2 23 -3 58 -1 74 4 95 21 97 78 3 64 2 65 -35 65 -23 0 -35 5 -35 14 0 9 14
13 50 13 l49 0 0 -71 c-1 -66 -3 -73 -32 -103 -28 -30 -36 -33 -92 -33 -56 0
-63 2 -93 35 l-33 34 3 148 c3 125 5 147 18 145 8 -2 12 0 7 4 -4 4 3 18 15
31 18 19 32 23 84 23 56 0 65 -3 93 -31z m1255 1 c21 -23 26 -38 26 -80 0 -33
-6 -57 -16 -67 -14 -14 -13 -18 6 -38 31 -33 25 -138 -10 -178 -23 -26 -26
-27 -136 -27 -107 0 -113 1 -111 20 1 12 8 20 19 20 17 0 18 13 18 170 0 163
-1 170 -20 170 -13 0 -20 7 -20 20 0 20 6 21 109 19 105 -1 109 -2 135 -29z
m-1057 -45 c0 -8 -6 -15 -14 -15 -8 0 -12 -10 -11 -25 1 -14 5 -25 9 -25 4 0
19 -29 35 -64 15 -36 31 -63 35 -60 7 4 89 161 89 170 0 2 -6 4 -14 4 -8 0
-16 6 -19 13 -4 10 8 14 45 16 37 1 49 -2 45 -11 -2 -7 -9 -12 -14 -11 -15 3
-112 -209 -115 -252 -3 -37 -1 -40 25 -43 19 -2 27 -9 27 -23 0 -17 -7 -19
-65 -19 -58 0 -65 2 -65 20 0 14 7 20 21 20 20 0 21 4 17 58 -3 32 -15 73 -28
94 -12 21 -18 43 -14 49 4 7 3 10 -2 6 -5 -3 -18 15 -28 39 -12 30 -24 44 -37
44 -19 0 -25 11 -12 23 3 4 25 7 48 7 30 0 42 -4 42 -15z m395 -25 c9 -19 34
-79 55 -133 20 -53 42 -96 48 -94 5 2 15 17 20 33 20 60 60 144 68 144 4 0 5
5 2 11 -4 5 1 26 10 45 15 31 20 34 60 34 33 0 45 -4 45 -15 0 -8 -6 -15 -14
-15 -11 0 -15 -25 -18 -122 -4 -142 -1 -168 18 -168 8 0 14 -9 14 -20 0 -18
-7 -20 -55 -20 -48 0 -55 2 -55 20 0 15 7 20 28 20 l27 0 -5 132 c-3 77 -9
133 -15 135 -6 2 -30 -46 -54 -107 -24 -60 -47 -110 -51 -110 -4 0 -7 -8 -6
-17 1 -21 -33 -30 -45 -11 -5 7 -9 23 -9 34 0 12 -7 27 -16 35 -8 7 -13 21
-11 31 3 10 2 18 -1 18 -7 0 -15 17 -47 93 -27 66 -35 44 -35 -98 0 -128 1
-135 20 -135 13 0 20 -7 20 -20 0 -18 -7 -20 -55 -20 -48 0 -55 2 -55 20 0 11
3 19 8 19 30 -5 32 3 32 150 0 144 -1 149 -20 144 -14 -4 -20 0 -20 11 0 14 9
17 47 14 43 -3 49 -6 65 -38z m918 25 c0 -9 -9 -15 -24 -15 -23 0 -41 -23 -32
-39 3 -4 6 -60 7 -124 1 -64 5 -115 9 -112 5 3 11 1 15 -5 9 -15 142 -13 148
3 4 9 7 9 18 0 11 -11 9 -16 -7 -31 -14 -14 -37 -19 -81 -21 -56 -1 -65 1 -96
29 l-35 30 -1 132 c-2 126 -9 157 -33 142 -4 -3 -8 2 -8 10 0 13 12 16 60 16
47 0 60 -3 60 -15z m210 -1 c0 -8 -7 -14 -15 -14 -12 0 -15 -24 -17 -137 -3
-115 -6 -138 -18 -138 -12 0 -15 23 -18 138 -2 129 -4 137 -22 137 -11 0 -20
7 -20 15 0 12 12 15 55 14 39 -1 55 -6 55 -15z m349 -10 l32 -27 -2 -125 -2
-126 -32 -28 c-31 -27 -37 -28 -137 -28 -97 0 -104 1 -104 20 0 13 7 20 18 20
16 0 18 12 19 123 1 67 0 130 -1 140 -1 10 4 26 11 35 11 14 11 15 -1 5 -18
-17 -37 -16 -43 1 -5 11 15 14 103 15 103 2 109 1 139 -25z m392 0 c26 -25 27
-29 28 -149 2 -119 1 -123 -25 -154 l-26 -32 -112 3 c-96 3 -111 5 -114 21 -2
12 3 17 17 17 15 0 21 6 21 23 0 13 6 29 13 36 10 11 10 13 0 7 -10 -6 -13 19
-13 108 0 96 -3 116 -15 116 -8 0 -15 6 -15 14 0 12 21 15 107 15 102 1 108 0
134 -25z m133 14 c-6 -10 -4 -10 7 0 19 17 69 16 69 -3 0 -8 -7 -15 -15 -15
-19 0 -19 -13 0 -49 8 -16 11 -31 8 -35 -4 -3 -1 -6 5 -6 7 0 12 -9 12 -20 0
-11 4 -20 9 -20 5 0 13 -9 16 -20 9 -27 24 -25 35 5 5 14 14 25 20 25 6 0 9 4
6 8 -2 4 4 13 15 20 22 14 26 0 4 -18 -8 -7 -15 -19 -15 -26 0 -7 -8 -27 -18
-43 -12 -19 -16 -43 -14 -70 4 -35 7 -41 28 -41 17 0 24 -6 24 -20 0 -18 -7
-20 -70 -20 -63 0 -70 2 -70 20 0 11 3 19 8 19 4 -1 17 -1 30 0 32 2 29 54 -6
127 -16 33 -38 79 -50 103 -12 24 -19 48 -16 53 3 5 2 8 -3 7 -4 -1 -16 -1
-25 0 -22 1 -24 31 -2 31 9 0 12 -5 8 -12z m276 -3 c0 -8 -8 -15 -18 -15 -11
0 -22 -12 -30 -32 -6 -18 -21 -39 -32 -46 -24 -14 -26 -4 -5 24 19 25 19 54 0
54 -8 0 -15 7 -15 15 0 11 12 15 50 15 38 0 50 -4 50 -15z"/>
<path d="M5180 1870 l0 -70 63 0 c78 1 97 14 97 68 0 58 -18 72 -96 72 l-64 0
0 -70z"/>
<path d="M5180 1680 l0 -80 68 0 c81 0 102 15 104 76 1 21 6 42 12 46 7 5 5 8
-5 8 -9 0 -19 7 -23 15 -4 11 -23 15 -81 15 l-75 0 0 -80z"/>
<path d="M5980 1740 l0 -140 73 0 c103 0 107 6 107 148 0 132 0 132 -109 132
l-71 0 0 -140z"/>
<path d="M6372 1878 c-4 -4 -6 -68 -4 -142 l3 -136 73 0 c53 0 77 4 86 15 7 8
15 13 19 11 3 -2 5 49 3 114 -2 87 -7 122 -17 130 -16 13 -152 19 -163 8z"/>
</g>
</svg>
