<?xml version="1.0" standalone="no"?>
<!DOCTYPE svg PUBLIC "-//W3C//DTD SVG 20010904//EN"
 "http://www.w3.org/TR/2001/REC-SVG-20010904/DTD/svg10.dtd">
<svg version="1.0" xmlns="http://www.w3.org/2000/svg"
 width="1080.000000pt" height="1080.000000pt" viewBox="0 0 1080.000000 1080.000000"
 preserveAspectRatio="xMidYMid meet">

<g transform="translate(0.000000,1080.000000) scale(0.100000,-0.100000)"
fill="#000000" stroke="none">
<path d="M5015 9210 c-397 -50 -725 -147 -1070 -315 -475 -233 -883 -572
-1208 -1004 -314 -418 -528 -930 -619 -1481 -26 -159 -36 -598 -19 -789 79
-844 474 -1631 1091 -2174 320 -281 612 -462 995 -614 1009 -403 2157 -276
3065 338 702 474 1196 1197 1384 2024 102 449 101 969 -4 1440 -172 777 -607
1448 -1260 1945 -267 203 -653 400 -990 503 -334 103 -558 137 -940 142 -227
3 -301 1 -425 -15z m671 -261 c901 -75 1748 -584 2261 -1359 255 -384 411
-800 480 -1280 22 -156 25 -603 5 -750 -55 -399 -147 -695 -320 -1033 -286
-560 -753 -1029 -1314 -1317 -479 -246 -942 -351 -1483 -337 -217 6 -345 20
-547 62 -450 92 -908 310 -1283 610 -128 102 -358 332 -460 460 -290 363 -498
791 -600 1235 -53 230 -69 385 -70 665 0 274 8 374 51 595 265 1366 1449 2394
2832 2459 165 7 271 5 448 -10z"/>
<path d="M5170 7581 c0 -6 4 -13 10 -16 6 -3 7 1 4 9 -7 18 -14 21 -14 7z"/>
<path d="M5096 7558 c3 -4 9 -8 15 -8 5 0 9 4 9 8 0 5 -7 9 -15 9 -8 0 -12 -4
-9 -9z"/>
<path d="M6447 7459 c7 -7 15 -10 18 -7 3 3 -2 9 -12 12 -14 6 -15 5 -6 -5z"/>
<path d="M4676 7392 c-3 -5 1 -9 9 -9 8 0 12 4 9 9 -3 4 -7 8 -9 8 -2 0 -6 -4
-9 -8z"/>
<path d="M4725 7370 c3 -5 8 -10 11 -10 2 0 4 5 4 10 0 6 -5 10 -11 10 -5 0
-7 -4 -4 -10z"/>
<path d="M4496 7263 c-6 -14 -5 -15 5 -6 7 7 10 15 7 18 -3 3 -9 -2 -12 -12z"/>
<path d="M5010 7160 c-9 -6 -10 -10 -3 -10 6 0 15 5 18 10 8 12 4 12 -15 0z"/>
<path d="M6756 7135 c-9 -26 -7 -32 5 -12 6 10 9 21 6 23 -2 3 -7 -2 -11 -11z"/>
<path d="M4306 7092 c-3 -5 1 -9 9 -9 8 0 12 4 9 9 -3 4 -7 8 -9 8 -2 0 -6 -4
-9 -8z"/>
<path d="M6650 7036 c0 -2 7 -7 16 -10 8 -3 12 -2 9 4 -6 10 -25 14 -25 6z"/>
<path d="M4412 6520 c0 -14 2 -19 5 -12 2 6 2 18 0 25 -3 6 -5 1 -5 -13z"/>
<path d="M4375 5500 c-3 -5 -1 -10 4 -10 6 0 11 5 11 10 0 6 -2 10 -4 10 -3 0
-8 -4 -11 -10z"/>
<path d="M3990 5266 c0 -2 7 -7 16 -10 8 -3 12 -2 9 4 -6 10 -25 14 -25 6z"/>
<path d="M4045 5169 c-4 -6 -5 -12 -2 -15 2 -3 7 2 10 11 7 17 1 20 -8 4z"/>
<path d="M4490 5171 c0 -6 4 -13 10 -16 6 -3 7 1 4 9 -7 18 -14 21 -14 7z"/>
<path d="M4060 5090 c0 -5 5 -10 11 -10 5 0 7 5 4 10 -3 6 -8 10 -11 10 -2 0
-4 -4 -4 -10z"/>
<path d="M4746 4825 c4 -8 11 -15 16 -15 6 0 5 6 -2 15 -7 8 -14 15 -16 15 -2
0 -1 -7 2 -15z"/>
<path d="M4805 4760 c-3 -6 1 -7 9 -4 18 7 21 14 7 14 -6 0 -13 -4 -16 -10z"/>
<path d="M4353 4675 c0 -8 4 -12 9 -9 5 3 6 10 3 15 -9 13 -12 11 -12 -6z"/>
<path d="M6297 4644 c-8 -8 1 -24 14 -24 5 0 9 7 9 15 0 15 -12 20 -23 9z"/>
<path d="M4445 4631 c-3 -5 -2 -12 3 -15 5 -3 9 1 9 9 0 17 -3 19 -12 6z"/>
<path d="M5040 4581 c0 -6 4 -13 10 -16 6 -3 7 1 4 9 -7 18 -14 21 -14 7z"/>
<path d="M5135 4570 c-3 -5 -1 -10 4 -10 6 0 11 5 11 10 0 6 -2 10 -4 10 -3 0
-8 -4 -11 -10z"/>
<path d="M5900 4506 c0 -2 8 -10 18 -17 15 -13 16 -12 3 4 -13 16 -21 21 -21
13z"/>
<path d="M4650 4425 c0 -7 30 -13 34 -7 3 4 -4 9 -15 9 -10 1 -19 0 -19 -2z"/>
<path d="M4756 4386 c3 -9 13 -16 22 -16 8 0 13 1 11 3 -2 1 -12 9 -22 16 -15
12 -17 12 -11 -3z"/>
<path d="M5008 4313 c7 -3 16 -2 19 1 4 3 -2 6 -13 5 -11 0 -14 -3 -6 -6z"/>
<path d="M3892 1955 l-32 -34 0 -147 c0 -142 1 -148 26 -181 25 -33 26 -33
108 -33 77 0 84 2 109 28 25 26 27 35 27 111 l0 82 -62 -3 c-57 -3 -63 -5 -66
-25 -3 -21 1 -23 37 -23 l41 0 0 -43 c0 -58 -21 -77 -86 -77 -28 0 -55 5 -62
12 -17 17 -17 279 0 296 17 17 116 15 134 -2 8 -8 14 -26 14 -40 0 -21 5 -26
25 -26 22 0 25 4 25 38 0 30 -7 45 -33 70 -31 30 -38 32 -103 32 -68 0 -72 -1
-102 -35z"/>
<path d="M5097 1983 c-15 -15 -7 -43 13 -43 19 0 20 -7 20 -164 0 -155 -1
-164 -20 -169 -12 -3 -20 -14 -20 -26 0 -20 5 -21 128 -21 l127 0 28 34 c35
46 39 129 6 170 -20 25 -20 28 -5 45 10 11 16 35 16 62 0 37 -6 50 -36 82
l-35 37 -108 0 c-59 0 -111 -3 -114 -7z m221 -65 c15 -15 16 -63 2 -89 -9 -15
-22 -19 -70 -19 l-60 0 0 60 0 60 58 0 c32 0 63 -5 70 -12z m4 -175 c22 -20
25 -98 4 -119 -10 -9 -36 -14 -75 -14 l-61 0 0 75 0 75 57 0 c38 0 62 -5 75
-17z"/>
<path d="M4180 1905 c0 -17 5 -25 18 -25 13 0 31 -29 65 -101 53 -115 60 -166
25 -171 -15 -2 -24 -11 -26 -25 -3 -22 -1 -23 77 -23 80 0 81 0 81 25 0 20 -5
25 -25 25 -39 0 -32 45 24 165 40 85 54 105 71 105 16 0 21 5 18 23 -3 20 -9
22 -65 25 -62 3 -63 2 -63 -23 0 -16 6 -25 15 -25 20 0 20 3 -19 -76 l-34 -68
-36 72 c-26 51 -32 72 -22 72 16 0 29 27 20 41 -3 5 -32 9 -65 9 -56 0 -59 -1
-59 -25z"/>
<path d="M4560 1905 c0 -18 5 -25 20 -25 19 0 20 -7 20 -135 0 -128 -1 -135
-20 -135 -15 0 -20 -7 -20 -25 0 -24 2 -25 65 -25 63 0 65 1 65 25 0 16 -6 25
-15 25 -12 0 -15 18 -14 108 0 59 3 103 5 97 2 -5 24 -55 47 -110 39 -93 45
-100 71 -100 26 0 30 7 73 110 24 61 47 112 49 114 2 2 4 -45 4 -106 0 -102
-2 -111 -20 -116 -12 -3 -20 -14 -20 -26 0 -19 6 -21 70 -21 64 0 70 2 70 21
0 12 -8 23 -20 26 -19 5 -20 14 -20 139 0 127 1 134 20 134 15 0 20 7 20 25 0
25 -1 26 -62 23 l-62 -3 -51 -129 -52 -128 -53 131 -52 131 -59 0 c-56 0 -59
-1 -59 -25z"/>
<path d="M5480 1905 c0 -16 6 -25 15 -25 13 0 15 -21 15 -129 0 -125 1 -131
26 -160 25 -30 28 -31 112 -31 85 0 87 0 114 33 27 31 28 35 28 160 0 106 2
127 15 127 9 0 15 9 15 25 0 24 -2 25 -65 25 -63 0 -65 -1 -65 -25 0 -18 5
-25 20 -25 19 0 20 -7 20 -123 0 -82 -4 -127 -12 -135 -16 -16 -120 -16 -136
0 -8 8 -12 53 -12 135 0 118 1 123 21 123 15 0 20 5 17 23 -3 20 -9 22 -65 25
-62 3 -63 2 -63 -23z"/>
<path d="M5900 1905 c0 -18 5 -25 20 -25 19 0 20 -7 20 -134 0 -125 -1 -134
-20 -139 -12 -3 -20 -14 -20 -26 0 -20 5 -21 123 -21 l123 0 32 33 32 33 0
117 c0 116 0 116 -31 152 l-31 35 -124 0 -124 0 0 -25z m232 -42 c15 -13 18
-32 18 -116 0 -126 -8 -137 -92 -137 l-58 0 0 135 0 135 57 0 c38 0 62 -5 75
-17z"/>
<path d="M6290 1905 c0 -18 5 -25 20 -25 19 0 20 -7 20 -134 0 -125 -1 -134
-20 -139 -12 -3 -20 -14 -20 -26 0 -20 5 -21 128 -21 l127 0 28 34 c26 34 27
39 27 150 0 115 0 115 -31 151 l-31 35 -124 0 -124 0 0 -25z m232 -42 c15 -14
18 -32 18 -120 0 -127 -4 -133 -89 -133 l-61 0 0 135 0 135 57 0 c38 0 62 -5
75 -17z"/>
<path d="M6650 1905 c0 -17 6 -25 18 -25 12 -1 31 -31 65 -101 53 -114 61
-166 25 -171 -15 -2 -24 -11 -26 -25 -3 -22 -1 -23 78 -23 79 0 81 1 78 23 -2
14 -11 23 -25 25 -19 3 -23 10 -23 36 0 43 94 236 115 236 9 0 15 9 15 25 0
24 -3 25 -60 25 -57 0 -60 -1 -60 -24 0 -14 7 -26 15 -28 11 -2 8 -17 -17 -70
-18 -38 -34 -68 -37 -68 -4 1 -20 32 -38 70 -24 53 -29 70 -18 70 9 0 15 10
15 25 0 24 -3 25 -60 25 -57 0 -60 -1 -60 -25z"/>
</g>
</svg>
